<?xml version="1.0"?>
<svg xmlns="http://www.w3.org/2000/svg" xmlns:xlink="http://www.w3.org/1999/xlink" version="1.1" id="Capa_1" x="0px" y="0px" viewBox="0 0 480.094 480.094" style="enable-background:new 0 0 480.094 480.094;" xml:space="preserve" width="512px" height="512px"><g><g>
	<g>
		<path d="M472.077,0h-24c-2.089-0.01-4.098,0.796-5.6,2.248L419.709,24.32L397.733,2.344l-11.312,11.312l21.792,21.792    l-12.896,12.48l-21.6-21.6l-11.296,11.328l21.4,21.4l-69.744,67.488c-47.832-27.76-108.918-14.756-141.296,30.08    c-1.677,2.309-1.997,5.336-0.84,7.944c10.791,24.18-0.063,52.53-24.243,63.321c-17.682,7.891-38.374,4.372-52.453-8.921    c-2.25-2.098-5.503-2.72-8.368-1.6C16.873,244.492-17.888,323.23,9.236,393.235S115.098,498,185.103,470.876    c35.658-13.816,63.848-42.014,77.654-77.676c1.12-2.865,0.498-6.118-1.6-8.368c-18.178-19.253-17.306-49.597,1.947-67.775    c14.079-13.293,34.771-16.812,52.453-8.921c2.606,1.169,5.64,0.848,7.944-0.84c44.836-32.378,57.841-93.464,30.08-141.296    l67.488-69.744l21.4,21.4l11.312-11.312l-21.6-21.6l12.48-12.896l21.792,21.792l11.312-11.312l-22.008-21.96L477.829,37.6    c1.452-1.502,2.258-3.511,2.248-5.6V8C480.077,3.582,476.495,0,472.077,0z M38.045,412.984    c-38.164-53.956-25.363-128.633,28.593-166.797c6.768-4.787,14.014-8.858,21.623-12.147c27.62,22.015,67.856,17.471,89.871-10.149    c13.786-17.296,17.656-40.488,10.233-61.323c27.242-34.192,74.829-44.407,113.704-24.408L194.517,242.248v0.064h-0.056    l-34.384,34.376l-2.344-2.344c-3.178-3.07-8.242-2.982-11.312,0.196c-2.994,3.1-2.994,8.015,0,11.116l2.344,2.344l-42.344,42.344    c-0.096,0.096-0.128,0.224-0.216,0.328s-0.208,0.136-0.296,0.232L38.045,412.984z M171.389,288l28.688-28.688L220.765,280    l-28.688,28.688L171.389,288z M180.765,320l-36.688,36.688L123.389,336l36.688-36.688L180.765,320z M48.877,424.992l63.752-77.12    l19.528,19.528l-77.544,63.328L48.877,424.992z M317.509,291.752c-33.262-11.866-69.846,5.478-81.712,38.74    c-7.438,20.848-3.564,44.061,10.24,61.364c-26.236,60.639-96.661,88.528-157.3,62.293c-7.816-3.382-15.249-7.589-22.172-12.549    l82.576-67.44c0.104-0.08,0.144-0.216,0.248-0.304c0.104-0.088,0.24-0.128,0.344-0.232l42.344-42.312l2.344,2.344    c3.178,3.069,8.242,2.982,11.312-0.196c2.994-3.1,2.994-8.015,0-11.116L203.389,320l34.344-34.344V285.6l0.064-0.04l104.12-107.52    C361.914,216.918,351.7,264.505,317.509,291.752z M231.981,268.592l-20.496-20.496l109.272-105.752l98.768-95.584l13.792,13.792    L231.981,268.592z M464.077,28.8l-19.632,20.248l-13.424-13.416L451.277,16h12.8V28.8z" data-original="#000000" class="active-path" data-old_color="#000000" fill="#2F89FC"/>
	</g>
</g><g>
	<g>
		<path d="M116.657,263.2c-9.96-5.028-22.113-1.326-27.579,8.401l-34.48,62.688c-0.95,1.681-3.083,2.274-4.764,1.324    c-1.635-0.924-2.248-2.974-1.388-4.644l2.496-5l-14.304-7.192l-2.496,5c-4.812,9.637-0.901,21.351,8.736,26.163    c0.394,0.197,0.794,0.38,1.2,0.549c2.356,0.989,4.885,1.503,7.44,1.512c7.03-0.017,13.518-3.779,17.024-9.872l34.472-62.696    c1.165-1.981,3.552-2.884,5.736-2.168c2.545,0.847,3.921,3.596,3.075,6.141c-0.071,0.215-0.158,0.424-0.259,0.627l-1.376,2.744    l14.312,7.2l1.376-2.76C131.067,280.933,126.939,268.39,116.657,263.2z" data-original="#000000" class="active-path" data-old_color="#000000" fill="#2F89FC"/>
	</g>
</g><g>
	<g>
		<path d="M213.263,362.403c-2.295-3.961-5.829-7.058-10.057-8.811v0.008c-5.58-2.319-11.893-2.097-17.296,0.608l-2.752,1.376    l7.136,14.32l2.76-1.384c2.406-1.194,5.325-0.212,6.519,2.194c0.1,0.201,0.186,0.409,0.257,0.622    c0.716,2.175-0.179,4.556-2.152,5.72l-57.528,33.024c-9.347,5.346-12.59,17.256-7.244,26.603    c5.157,9.016,16.477,12.406,25.74,7.709l5.008-2.504l-7.152-14.312l-5.008,2.504c-0.863,0.439-1.87,0.494-2.776,0.152    c-0.908-0.338-1.637-1.036-2.016-1.928c-0.679-1.613-0.06-3.48,1.448-4.368l57.52-33.032    C215.636,385.131,219.036,372.371,213.263,362.403z" data-original="#000000" class="active-path" data-old_color="#000000" fill="#2F89FC"/>
	</g>
</g></g> </svg>
